<svg xmlns="http://www.w3.org/2000/svg" xmlns:xlink="http://www.w3.org/1999/xlink" width="500" zoomAndPan="magnify" viewBox="0 0 375 374.999991" height="500" preserveAspectRatio="xMidYMid meet" version="1.0"><defs><clipPath id="id1"><path d="M 74.542969 61.792969 L 314.542969 61.792969 L 314.542969 312.292969 L 74.542969 312.292969 Z M 74.542969 61.792969 " clip-rule="nonzero"/></clipPath><clipPath id="id2"><path d="M 11 23 L 364 23 L 364 359 L 11 359 Z M 11 23 " clip-rule="nonzero"/></clipPath><clipPath id="id3"><path d="M 441.925781 182.597656 L 157.457031 438.296875 L 9.050781 273.195312 L 293.519531 17.492188 Z M 441.925781 182.597656 " clip-rule="nonzero"/></clipPath><clipPath id="id4"><path d="M 441.925781 182.597656 L 157.457031 438.296875 L 9.050781 273.195312 L 293.519531 17.492188 Z M 441.925781 182.597656 " clip-rule="nonzero"/></clipPath><clipPath id="id5"><path d="M 441.925781 182.597656 L 157.457031 438.296875 L 9.050781 273.195312 L 293.519531 17.492188 Z M 441.925781 182.597656 " clip-rule="nonzero"/></clipPath></defs><path fill="#545454" d="M 95.890625 257.539062 L 216.835938 136.59375 C 215.460938 133.871094 214.714844 130.828125 214.714844 127.589844 C 214.714844 116.460938 223.71875 107.425781 234.875 107.425781 C 246.003906 107.425781 255.007812 116.460938 255.007812 127.589844 C 255.007812 138.71875 246.003906 147.75 234.875 147.75 C 231.636719 147.75 228.566406 146.976562 225.84375 145.601562 L 184.457031 186.984375 L 95.890625 275.578125 L 95.890625 305.808594 L 234.875 305.808594 C 267.542969 305.835938 294.273438 279.078125 294.273438 246.410156 C 294.273438 225.789062 283.632812 207.519531 267.542969 196.851562 L 226.933594 237.464844 C 228.308594 240.1875 229.054688 243.226562 229.054688 246.46875 C 229.054688 257.625 220.046875 266.632812 208.890625 266.632812 C 197.765625 266.632812 188.757812 257.625 188.757812 246.46875 C 188.757812 235.339844 197.765625 226.335938 208.890625 226.335938 C 212.132812 226.335938 215.203125 227.082031 217.925781 228.457031 L 255.613281 190.742188 L 276.835938 169.546875 C 287.589844 158.765625 294.273438 143.910156 294.273438 127.589844 C 294.273438 94.894531 267.542969 68.164062 234.875 68.164062 L 95.890625 68.164062 L 95.890625 132.320312 L 104.351562 123.859375 C 103.578125 122.339844 103.148438 120.621094 103.148438 118.785156 C 103.148438 112.503906 108.222656 107.425781 114.503906 107.425781 C 120.785156 107.425781 125.863281 112.503906 125.863281 118.785156 C 125.863281 125.066406 120.785156 130.140625 114.503906 130.140625 C 112.667969 130.140625 110.949219 129.710938 109.429688 128.9375 L 95.890625 142.503906 L 95.890625 191.085938 L 114.820312 172.128906 L 155.804688 131.144531 C 154.714844 128.9375 154.082031 126.441406 154.082031 123.832031 C 154.082031 114.769531 161.425781 107.425781 170.488281 107.425781 C 179.523438 107.425781 186.867188 114.769531 186.867188 123.832031 C 186.867188 132.867188 179.523438 140.207031 170.488281 140.207031 C 167.851562 140.207031 165.355469 139.605469 163.148438 138.488281 L 129.476562 172.128906 L 95.890625 205.742188 Z M 95.890625 257.539062 " fill-opacity="1" fill-rule="evenodd"/><path fill="#545454" d="M 217.898438 246.46875 C 217.898438 247.058594 217.839844 247.644531 217.722656 248.226562 C 217.609375 248.804688 217.4375 249.367188 217.210938 249.914062 C 216.984375 250.460938 216.707031 250.980469 216.378906 251.472656 C 216.050781 251.964844 215.679688 252.417969 215.257812 252.835938 C 214.839844 253.253906 214.386719 253.628906 213.894531 253.957031 C 213.402344 254.285156 212.882812 254.5625 212.339844 254.789062 C 211.792969 255.015625 211.230469 255.1875 210.648438 255.300781 C 210.070312 255.417969 209.484375 255.472656 208.890625 255.472656 C 208.300781 255.472656 207.714844 255.417969 207.136719 255.300781 C 206.554688 255.1875 205.992188 255.015625 205.445312 254.789062 C 204.898438 254.5625 204.378906 254.285156 203.886719 253.957031 C 203.398438 253.628906 202.941406 253.253906 202.523438 252.835938 C 202.105469 252.417969 201.730469 251.964844 201.402344 251.472656 C 201.074219 250.980469 200.796875 250.460938 200.570312 249.914062 C 200.34375 249.367188 200.175781 248.804688 200.058594 248.226562 C 199.945312 247.644531 199.886719 247.058594 199.886719 246.46875 C 199.886719 245.878906 199.945312 245.292969 200.058594 244.710938 C 200.175781 244.132812 200.34375 243.570312 200.570312 243.023438 C 200.796875 242.476562 201.074219 241.957031 201.402344 241.464844 C 201.730469 240.972656 202.105469 240.519531 202.523438 240.101562 C 202.941406 239.683594 203.398438 239.308594 203.886719 238.980469 C 204.378906 238.652344 204.898438 238.375 205.445312 238.148438 C 205.992188 237.921875 206.554688 237.75 207.136719 237.636719 C 207.714844 237.519531 208.300781 237.464844 208.890625 237.464844 C 209.484375 237.464844 210.070312 237.519531 210.648438 237.636719 C 211.230469 237.75 211.792969 237.921875 212.339844 238.148438 C 212.882812 238.375 213.402344 238.652344 213.894531 238.980469 C 214.386719 239.308594 214.839844 239.683594 215.257812 240.101562 C 215.679688 240.519531 216.050781 240.972656 216.378906 241.464844 C 216.707031 241.957031 216.984375 242.476562 217.210938 243.023438 C 217.4375 243.570312 217.609375 244.132812 217.722656 244.710938 C 217.839844 245.292969 217.898438 245.878906 217.898438 246.46875 Z M 217.898438 246.46875 " fill-opacity="1" fill-rule="nonzero"/><g clip-path="url(#id1)"><path fill="#545454" d="M 195.066406 -20 C 252.226562 -20 303.996094 3.175781 341.453125 40.628906 C 378.910156 78.085938 402.082031 129.828125 402.082031 186.984375 C 402.082031 244.144531 378.910156 295.914062 341.453125 333.371094 C 303.996094 370.828125 252.226562 394 195.066406 394 C 137.90625 394 86.167969 370.828125 48.710938 333.371094 C 11.257812 295.914062 -11.917969 244.144531 -11.917969 186.984375 C -11.917969 129.828125 11.257812 78.085938 48.710938 40.628906 C 86.167969 3.175781 137.90625 -20 195.066406 -20 Z M 329.292969 52.789062 C 294.933594 18.433594 247.496094 -2.820312 195.066406 -2.820312 C 142.667969 -2.820312 95.203125 18.433594 60.871094 52.789062 C 26.515625 87.121094 5.261719 134.585938 5.261719 186.984375 C 5.261719 239.414062 26.515625 286.851562 60.871094 321.210938 C 95.203125 355.570312 142.667969 376.792969 195.066406 376.792969 C 247.496094 376.792969 294.933594 355.570312 329.292969 321.210938 C 363.652344 286.851562 384.875 239.414062 384.875 186.984375 C 384.875 134.585938 363.652344 87.121094 329.292969 52.789062 Z M 329.292969 52.789062 " fill-opacity="1" fill-rule="nonzero"/></g><g clip-path="url(#id2)"><g clip-path="url(#id3)"><g clip-path="url(#id4)"><g clip-path="url(#id5)"><path fill="#a37b40" d="M 11.789062 270.730469 C 27.023438 293.136719 46.847656 312.398438 69.75 326.601562 C 81.199219 333.761719 93.347656 339.636719 106.019531 344.277344 C 107.59375 344.9375 109.175781 345.367188 110.757812 345.910156 L 115.554688 347.488281 C 118.777344 348.40625 122.0625 349.273438 125.285156 350.191406 C 128.574219 350.941406 131.867188 351.691406 135.164062 352.328125 L 140.171875 353.171875 C 141.820312 353.433594 143.527344 353.753906 145.183594 353.898438 C 171.816406 357.335938 199.1875 355.414062 224.859375 347.71875 C 250.480469 339.847656 274.488281 326.664062 294.660156 308.972656 C 314.878906 291.453125 331.535156 269.609375 342.589844 245.167969 C 353.867188 220.851562 359.765625 194.066406 360.035156 167.210938 C 360.253906 140.292969 354.730469 113.414062 343.804688 88.769531 C 338.433594 76.367188 331.644531 64.691406 323.667969 53.757812 C 315.691406 42.820312 306.699219 32.695312 296.617188 23.542969 C 301.78125 27.953125 306.703125 32.578125 311.378906 37.539062 C 312.578125 38.75 313.65625 40.070312 314.796875 41.339844 L 318.152344 45.191406 C 319.289062 46.460938 320.367188 47.78125 321.386719 49.15625 L 324.5625 53.171875 C 332.773438 64.003906 339.90625 75.699219 345.625 88.003906 C 357.003906 112.789062 363.027344 139.980469 363.132812 167.261719 C 363.242188 194.539062 357.316406 221.898438 346.0625 246.84375 C 334.867188 271.738281 317.898438 294.082031 297.3125 312.042969 C 276.671875 329.941406 252.070312 343.4375 225.882812 351.160156 C 199.640625 358.828125 171.695312 360.71875 144.691406 356.742188 C 142.976562 356.539062 141.273438 356.214844 139.621094 355.957031 L 134.558594 355.050781 C 131.207031 354.355469 127.863281 353.546875 124.574219 352.792969 C 121.296875 351.816406 118.011719 350.949219 114.734375 349.972656 L 109.882812 348.332031 C 108.304688 347.789062 106.664062 347.300781 105.089844 346.640625 C 92.371094 341.824219 80.066406 335.652344 68.628906 328.265625 C 57.253906 320.824219 46.628906 312.15625 37.09375 302.515625 C 32.355469 297.613281 27.734375 292.714844 23.542969 287.320312 C 19.289062 281.984375 15.390625 276.433594 11.789062 270.730469 Z M 11.789062 270.730469 " fill-opacity="1" fill-rule="nonzero"/></g></g></g></g></svg>