<svg xmlns="http://www.w3.org/2000/svg" xmlns:xlink="http://www.w3.org/1999/xlink" width="500" zoomAndPan="magnify" viewBox="0 0 375 374.999991" height="500" preserveAspectRatio="xMidYMid meet" version="1.0"><path fill="#000000" d="M 239.210938 113.535156 C 238.6875 114.054688 238.09375 114.511719 237.421875 114.894531 C 233.402344 117.179688 228.292969 115.773438 226.011719 111.753906 C 222.308594 105.238281 217.71875 99.222656 212.363281 93.867188 C 209.09375 90.597656 209.09375 85.300781 212.363281 82.03125 C 215.632812 78.765625 220.933594 78.765625 224.203125 82.03125 C 230.617188 88.445312 236.121094 95.664062 240.5625 103.480469 C 242.46875 106.832031 241.808594 110.9375 239.210938 113.535156 " fill-opacity="1" fill-rule="nonzero"/><path fill="#000000" d="M 197.355469 75.195312 C 194.953125 77.59375 191.226562 78.382812 187.957031 76.886719 C 168.425781 67.964844 145.585938 66.933594 125.289062 74.0625 C 120.929688 75.59375 116.148438 73.296875 114.621094 68.9375 C 113.085938 64.574219 115.386719 59.796875 119.742188 58.265625 C 144.441406 49.59375 171.140625 50.800781 194.910156 61.660156 C 199.117188 63.582031 200.96875 68.546875 199.050781 72.753906 C 198.621094 73.6875 198.039062 74.507812 197.355469 75.195312 " fill-opacity="1" fill-rule="nonzero"/><path fill="#000000" d="M 264.714844 153.117188 C 264.714844 182.925781 253.105469 210.949219 232.027344 232.03125 C 210.949219 253.105469 182.925781 264.714844 153.117188 264.714844 C 123.308594 264.714844 95.28125 253.105469 74.207031 232.03125 C 53.125 210.949219 41.515625 182.925781 41.515625 153.117188 C 41.515625 123.308594 53.125 95.28125 74.207031 74.207031 C 95.28125 53.125 123.308594 41.515625 153.117188 41.515625 C 182.925781 41.515625 210.949219 53.125 232.027344 74.207031 C 253.105469 95.28125 264.714844 123.308594 264.714844 153.117188 Z M 54.476562 54.476562 C 0 108.953125 0 197.28125 54.476562 251.757812 C 106.742188 304.023438 190.164062 306.132812 244.957031 258.109375 L 250.242188 263.394531 C 248.59375 269.597656 250.179688 276.484375 255.042969 281.347656 L 334.664062 360.964844 C 341.929688 368.230469 353.703125 368.230469 360.96875 360.964844 C 368.230469 353.703125 368.230469 341.925781 360.96875 334.664062 L 281.351562 255.042969 C 276.484375 250.179688 269.597656 248.589844 263.394531 250.242188 L 258.109375 244.957031 C 306.136719 190.164062 304.027344 106.742188 251.757812 54.476562 C 197.28125 0 108.953125 0 54.476562 54.476562 " fill-opacity="1" fill-rule="nonzero"/></svg>