<svg xmlns="http://www.w3.org/2000/svg" xmlns:xlink="http://www.w3.org/1999/xlink" width="500" zoomAndPan="magnify" viewBox="0 0 375 374.999991" height="500" preserveAspectRatio="xMidYMid meet" version="1.0"><defs><g/><clipPath id="id1"><path d="M 82.660156 77.386719 L 311.410156 77.386719 L 311.410156 290.386719 L 82.660156 290.386719 Z M 82.660156 77.386719 " clip-rule="nonzero"/></clipPath></defs><g clip-path="url(#id1)"><path fill="#545454" d="M 122.230469 101.070312 C 119.300781 103.414062 116.492188 105.878906 113.800781 108.574219 C 111.109375 111.269531 108.648438 114.082031 106.308594 117.011719 L 122.347656 133.074219 L 135.339844 146.085938 L 138.265625 149.015625 C 121.761719 173.046875 124.21875 206.101562 145.527344 227.4375 C 166.832031 248.886719 199.84375 251.234375 223.84375 234.703125 L 239.882812 250.765625 C 233.441406 255.570312 226.535156 259.4375 219.394531 262.132812 C 189.425781 273.855469 153.953125 267.527344 129.722656 243.261719 C 105.488281 218.996094 99.285156 183.59375 110.875 153.46875 L 93.78125 136.472656 C 73.996094 176.328125 80.671875 226.03125 113.800781 259.203125 C 147.046875 292.496094 196.683594 299.175781 236.488281 279.25 C 243.277344 275.851562 249.832031 271.746094 255.921875 266.824219 L 279.449219 290.386719 L 311.410156 290.386719 L 271.839844 250.882812 L 255.804688 234.820312 L 244.683594 223.6875 L 239.765625 218.761719 C 254.632812 197.195312 254.164062 168.355469 238.476562 147.257812 C 236.722656 144.796875 234.730469 142.566406 232.507812 140.339844 C 220.214844 128.03125 204.058594 122.054688 188.019531 122.289062 C 176.195312 122.523438 164.375 126.039062 154.1875 133.074219 L 149.738281 128.617188 L 138.265625 117.128906 C 171.164062 92.042969 218.339844 94.507812 248.3125 124.515625 C 272.542969 148.78125 278.867188 184.300781 267.160156 214.308594 L 284.25 231.421875 C 304.152344 191.566406 297.480469 141.863281 264.230469 108.574219 C 225.367188 69.65625 164.023438 67.195312 122.230469 101.070312 Z M 208.390625 141.511719 C 205.230469 141.511719 202.070312 142.800781 199.726562 145.265625 C 194.8125 150.1875 194.8125 158.160156 199.726562 163.082031 C 204.644531 168.003906 212.605469 168.003906 217.523438 163.082031 C 221.96875 158.511719 222.4375 151.59375 218.691406 146.671875 C 218.339844 146.085938 217.992188 145.617188 217.523438 145.265625 C 215.0625 142.683594 211.667969 141.511719 208.390625 141.511719 Z M 208.390625 141.511719 " fill-opacity="1" fill-rule="evenodd"/></g><g fill="#545454" fill-opacity="1"><g transform="translate(265.183724, 291.345653)"><g><path d="M -8.132812 11.304688 C -9.011719 9.335938 -8.03125 6.734375 -6.058594 5.855469 C -4.085938 4.976562 -1.5 5.984375 -0.617188 7.957031 C 0.261719 9.929688 -0.726562 12.507812 -2.699219 13.386719 C -4.671875 14.269531 -7.253906 13.277344 -8.132812 11.304688 Z M -10.933594 6.789062 C -11.714844 8.578125 -11.789062 10.683594 -10.957031 12.542969 C -9.382812 16.074219 -4.984375 17.761719 -1.453125 16.1875 C 2.078125 14.613281 3.765625 10.210938 2.191406 6.679688 C 0.617188 3.148438 -3.785156 1.460938 -7.316406 3.039062 C -7.824219 3.265625 -8.304688 3.546875 -8.734375 3.894531 L -14.558594 6.492188 L -13.5625 8.726562 L -12.039062 8.050781 Z M -10.933594 6.789062 "/></g></g></g><g fill="#545454" fill-opacity="1"><g transform="translate(236.235045, 302.320425)"><g><path d="M -6.390625 15.59375 L -8.019531 7.675781 C -8.40625 5.78125 -8.0625 4.597656 -5.988281 4.171875 C -3.933594 3.75 -3.128906 4.695312 -2.742188 6.589844 L -1.113281 14.507812 L 1.910156 13.886719 L 0.191406 5.523438 C -0.558594 1.878906 -3.042969 0.414062 -6.609375 1.148438 C -10.175781 1.882812 -11.882812 4.207031 -11.132812 7.851562 L -9.414062 16.214844 Z M -6.390625 15.59375 "/></g></g></g><g fill="#545454" fill-opacity="1"><g transform="translate(208.084736, 306.528452)"><g><path d="M -8.886719 5.277344 L -5.347656 5.304688 L -7.15625 10.269531 Z M -14.066406 -0.109375 L -8.5 13.921875 L -5.890625 13.941406 L -0.101562 0 L -3.414062 -0.0273438 L -4.445312 2.78125 L -9.769531 2.742188 L -10.757812 -0.0859375 Z M -14.066406 -0.109375 "/></g></g></g><g fill="#545454" fill-opacity="1"><g transform="translate(178.92475, 304.676928)"><g><path d="M -11.925781 -2.648438 L -14.960938 11.003906 L -11.949219 11.671875 L -10.058594 3.160156 L -7.25 12.71875 L -4.238281 13.386719 L -1.203125 -0.269531 L -4.214844 -0.9375 L -6.109375 7.578125 L -8.914062 -1.980469 Z M -11.925781 -2.648438 "/></g></g></g><g fill="#545454" fill-opacity="1"><g transform="translate(151.443654, 296.905862)"><g><path d="M -11.109375 7.296875 L -14.757812 5.675781 L -15.894531 8.230469 L -5.785156 12.734375 L -4.648438 10.179688 L -8.292969 8.554688 L -3.738281 -1.667969 L -6.558594 -2.921875 Z M -11.109375 7.296875 "/></g></g></g><g fill="#545454" fill-opacity="1"><g transform="translate(127.943784, 284.890223)"><g><path d="M -15.773438 5.925781 L -11.082031 -0.652344 C -9.957031 -2.226562 -8.855469 -2.78125 -7.132812 -1.550781 C -5.421875 -0.332031 -5.570312 0.902344 -6.695312 2.476562 L -11.386719 9.054688 L -8.875 10.847656 L -3.917969 3.898438 C -1.757812 0.867188 -2.375 -1.949219 -5.339844 -4.0625 C -8.300781 -6.175781 -11.167969 -5.84375 -13.328125 -2.8125 L -18.285156 4.132812 Z M -15.773438 5.925781 "/></g></g></g><g fill="#545454" fill-opacity="1"><g transform="translate(105.677553, 267.292088)"><g><path d="M -12.378906 -13.984375 L -21.050781 -2.683594 L -18.625 0.0585938 L -9.355469 -4.273438 L -14.765625 4.417969 L -12.339844 7.160156 L -0.0664062 -0.078125 L -2.316406 -2.617188 L -10.632812 2.542969 L -5.222656 -5.898438 L -7.226562 -8.164062 L -16.261719 -3.816406 L -10.128906 -11.445312 Z M -12.378906 -13.984375 "/></g></g></g><g fill="#545454" fill-opacity="1"><g transform="translate(84.899368, 240.544055)"><g/></g></g><g fill="#545454" fill-opacity="1"><g transform="translate(75.535757, 222.351588)"><g><path d="M -6.609375 -6.0625 C -5.742188 -6.382812 -4.757812 -5.914062 -4.4375 -5.046875 L -3.757812 -3.214844 L -6.921875 -2.042969 L -7.597656 -3.875 C -7.921875 -4.742188 -7.457031 -5.746094 -6.609375 -6.0625 Z M -11.753906 -3.125 C -10.921875 -3.433594 -9.972656 -2.996094 -9.664062 -2.167969 L -9.292969 -1.164062 L -12.339844 -0.0351562 L -12.710938 -1.039062 C -13.019531 -1.867188 -12.601562 -2.8125 -11.753906 -3.125 Z M -7.625 -9.042969 C -9.402344 -8.382812 -10.132812 -6.753906 -9.9375 -5.15625 C -10.746094 -5.976562 -11.964844 -6.183594 -13.292969 -5.691406 C -15.089844 -5.027344 -16.042969 -3.050781 -15.214844 -0.8125 L -13.542969 3.699219 L -0.429688 -1.15625 L -2.394531 -6.460938 C -3.320312 -8.96875 -5.371094 -9.878906 -7.625 -9.042969 Z M -7.625 -9.042969 "/></g></g></g><g fill="#545454" fill-opacity="1"><g transform="translate(67.742085, 197.002344)"><g><path d="M -0.203125 -1.21875 L -1.539062 -9.210938 L -4.300781 -8.75 L -3.472656 -3.796875 L -14.507812 -1.953125 L -14 1.089844 Z M -0.203125 -1.21875 "/></g></g></g><g fill="#545454" fill-opacity="1"><g transform="translate(65.02844, 171.77453)"><g><path d="M 0.015625 -4.320312 L -13.972656 -4.363281 L -13.984375 -1.277344 L 0.00390625 -1.234375 Z M 0.015625 -4.320312 "/></g></g></g><g fill="#545454" fill-opacity="1"><g transform="translate(66.128263, 150.975488)"><g><path d="M -0.9375 -6.949219 C -1.210938 -5.453125 -2.199219 -4.296875 -3.851562 -4.515625 L -4.417969 -1.441406 C -1.058594 -0.84375 0.949219 -3.339844 1.507812 -6.371094 C 2.027344 -9.183594 1.367188 -12.296875 -1.871094 -12.894531 C -7.109375 -13.859375 -6.8125 -5.585938 -9.261719 -6.035156 C -10.292969 -6.226562 -10.476562 -7.492188 -10.320312 -8.34375 C -10.042969 -9.859375 -9.421875 -10.605469 -7.957031 -10.5 L -7.417969 -13.433594 C -10.570312 -13.910156 -12.296875 -11.59375 -12.816406 -8.761719 C -13.277344 -6.253906 -12.429688 -3.378906 -9.597656 -2.855469 C -4.519531 -1.921875 -4.773438 -10.1875 -2.105469 -9.695312 C -0.871094 -9.46875 -0.761719 -7.898438 -0.9375 -6.949219 Z M -0.9375 -6.949219 "/></g></g></g><g fill="#545454" fill-opacity="1"><g transform="translate(72.722393, 123.716431)"><g><path d="M 0.496094 -6.996094 C -0.078125 -5.585938 -1.28125 -4.652344 -2.855469 -5.207031 L -4.035156 -2.308594 C -0.863281 -1.039062 1.609375 -3.074219 2.773438 -5.933594 C 3.851562 -8.582031 3.839844 -11.761719 0.789062 -13.003906 C -4.140625 -15.015625 -5.535156 -6.855469 -7.839844 -7.792969 C -8.8125 -8.1875 -8.734375 -9.46875 -8.410156 -10.269531 C -7.828125 -11.695312 -7.070312 -12.300781 -5.65625 -11.898438 L -4.53125 -14.660156 C -7.523438 -15.769531 -9.679688 -13.851562 -10.765625 -11.183594 C -11.730469 -8.824219 -11.480469 -5.835938 -8.816406 -4.746094 C -4.035156 -2.800781 -2.601562 -10.945312 -0.0898438 -9.917969 C 1.074219 -9.445312 0.859375 -7.890625 0.496094 -6.996094 Z M 0.496094 -6.996094 "/></g></g></g></svg>