<svg xmlns="http://www.w3.org/2000/svg" xmlns:xlink="http://www.w3.org/1999/xlink" width="500" zoomAndPan="magnify" viewBox="0 0 375 374.999991" height="500" preserveAspectRatio="xMidYMid meet" version="1.0"><defs><clipPath id="id1"><path d="M 6.617188 19.296875 L 368.117188 19.296875 L 368.117188 356.046875 L 6.617188 356.046875 Z M 6.617188 19.296875 " clip-rule="nonzero"/></clipPath><clipPath id="id2"><path d="M 135 240 L 196 240 L 196 247.632812 L 135 247.632812 Z M 135 240 " clip-rule="nonzero"/></clipPath><clipPath id="id3"><path d="M 115.257812 127.632812 L 221.757812 127.632812 L 221.757812 239 L 115.257812 239 Z M 115.257812 127.632812 " clip-rule="nonzero"/></clipPath></defs><g clip-path="url(#id1)"><path fill="#737373" d="M 69.148438 56.738281 C 64.523438 60.445312 60.082031 64.335938 55.828125 68.597656 C 51.570312 72.859375 47.6875 77.308594 43.988281 81.941406 L 69.332031 107.332031 L 89.867188 127.902344 L 94.492188 132.539062 C 68.40625 170.53125 72.292969 222.792969 105.964844 256.523438 C 139.632812 290.4375 191.804688 294.144531 229.730469 268.015625 L 255.078125 293.402344 C 244.902344 301.003906 233.988281 307.117188 222.703125 311.382812 C 175.339844 329.914062 119.285156 319.90625 80.988281 281.542969 C 42.691406 243.179688 32.886719 187.210938 51.203125 139.578125 L 24.191406 112.707031 C -7.074219 175.71875 3.472656 254.300781 55.828125 306.75 C 108.367188 359.382812 186.8125 369.945312 249.710938 338.441406 C 260.441406 333.066406 270.804688 326.578125 280.421875 318.792969 L 317.609375 356.046875 L 368.117188 356.046875 L 305.585938 293.589844 L 280.238281 268.199219 L 262.664062 250.59375 L 254.894531 242.808594 C 278.386719 208.707031 277.648438 163.117188 252.859375 129.757812 C 250.082031 125.867188 246.9375 122.34375 243.421875 118.824219 C 223.996094 99.363281 198.464844 89.910156 173.121094 90.28125 C 154.433594 90.652344 135.75 96.210938 119.652344 107.332031 L 112.625 100.289062 L 94.492188 82.128906 C 146.480469 42.464844 221.035156 46.359375 268.398438 93.804688 C 306.695312 132.167969 316.683594 188.320312 298.183594 235.765625 L 325.195312 262.824219 C 356.644531 199.8125 346.101562 121.230469 293.558594 68.597656 C 232.136719 7.070312 135.195312 3.175781 69.148438 56.738281 Z M 205.3125 120.675781 C 200.316406 120.675781 195.320312 122.714844 191.621094 126.605469 C 183.851562 134.390625 183.851562 146.992188 191.621094 154.777344 C 199.390625 162.5625 211.972656 162.5625 219.742188 154.777344 C 226.773438 147.550781 227.511719 136.613281 221.59375 128.832031 C 221.035156 127.902344 220.480469 127.164062 219.742188 126.605469 C 215.855469 122.53125 210.492188 120.675781 205.3125 120.675781 Z M 205.3125 120.675781 " fill-opacity="1" fill-rule="evenodd"/></g><g clip-path="url(#id2)"><path fill="#7c898b" d="M 176.804688 245.429688 C 181.480469 245.648438 184.554688 246 184.554688 246.4375 C 184.554688 247.089844 176.585938 247.632812 166.769531 247.632812 C 156.949219 247.632812 148.980469 247.089844 148.980469 246.4375 C 148.980469 246.027344 151.863281 245.675781 156.269531 245.457031 C 144.195312 245.324219 135.492188 244.914062 135.492188 244.453125 C 135.492188 244.074219 141.71875 243.71875 150.941406 243.53125 C 148.328125 243.175781 146.777344 242.714844 146.777344 242.253906 C 146.777344 241.058594 156.460938 240.082031 168.425781 240.082031 C 180.367188 240.082031 190.074219 241.058594 190.074219 242.253906 C 190.074219 242.796875 188.171875 243.257812 185.042969 243.636719 C 191.679688 243.828125 195.894531 244.128906 195.894531 244.453125 C 195.894531 244.886719 188.007812 245.269531 176.859375 245.429688 Z M 176.804688 245.429688 " fill-opacity="1" fill-rule="evenodd"/></g><g clip-path="url(#id3)"><path fill="#ffffff" d="M 197.417969 220.359375 C 202.503906 220.6875 205.496094 221.066406 205.496094 221.5 C 205.496094 222.234375 196.984375 222.859375 184.390625 223.1875 C 191.433594 223.917969 195.976562 225.058594 195.976562 226.335938 C 195.976562 227.613281 191.542969 228.753906 184.636719 229.488281 C 195.1875 229.839844 202.695312 230.738281 202.695312 231.796875 C 202.695312 232.367188 200.410156 232.910156 196.601562 233.34375 C 211.207031 233.699219 221.515625 234.59375 221.515625 235.625 C 221.515625 236.984375 203.78125 238.070312 181.945312 238.070312 C 160.078125 238.070312 142.371094 236.984375 142.371094 235.625 C 142.371094 234.839844 148.300781 234.160156 157.519531 233.699219 C 151.429688 233.234375 147.566406 232.554688 147.566406 231.824219 C 147.566406 231.144531 150.777344 230.519531 155.945312 230.058594 C 145.199219 229.460938 137.640625 228.046875 137.640625 226.390625 C 137.640625 225.140625 141.882812 224.027344 148.519531 223.292969 C 134.132812 222.996094 124.097656 222.316406 124.097656 221.554688 C 124.097656 220.632812 138.019531 219.871094 156.570312 219.683594 C 148.058594 217.972656 140.578125 217.183594 134.105469 217.265625 C 122.710938 207.648438 115.476562 193.28125 115.476562 177.226562 C 115.476562 154.277344 130.269531 134.746094 150.859375 127.6875 C 140.605469 136.40625 134.105469 149.386719 134.105469 163.863281 C 134.105469 190.074219 155.398438 211.34375 181.644531 211.34375 C 195.757812 211.34375 208.433594 205.203125 217.136719 195.453125 C 213.355469 205.667969 206.472656 214.359375 197.636719 220.441406 L 197.445312 220.441406 Z M 197.417969 220.359375 " fill-opacity="1" fill-rule="evenodd"/></g></svg>